<?xml version="1.0" standalone="no"?>
<!DOCTYPE svg PUBLIC "-//W3C//DTD SVG 20010904//EN"
 "http://www.w3.org/TR/2001/REC-SVG-20010904/DTD/svg10.dtd">
<svg version="1.0" xmlns="http://www.w3.org/2000/svg"
 width="1024.000000pt" height="1024.000000pt" viewBox="0 0 1024.000000 1024.000000"
 preserveAspectRatio="xMidYMid meet">

<g transform="translate(0.000000,1024.000000) scale(0.100000,-0.100000)"
fill="#000000" stroke="none">
<path d="M5087 8830 c-10 -49 -9 -662 1 -672 5 -5 51 -7 103 -6 l94 3 5 161
c6 179 11 194 66 194 44 0 46 -10 48 -203 l1 -152 101 -3 c98 -3 102 -2 108
20 3 13 5 95 4 183 l-2 160 -6 -155 c-4 -85 -8 -163 -9 -172 -1 -16 -12 -18
-91 -18 -53 0 -90 4 -90 10 0 6 5 10 11 10 5 0 7 5 3 12 -4 7 -7 74 -5 150 3
135 2 138 -23 163 -31 31 -57 32 -93 1 l-28 -24 -5 -159 -5 -158 -79 -3 c-84
-3 -111 2 -101 18 3 5 7 155 8 332 l2 323 97 0 c53 0 94 3 91 8 -2 4 -48 7
-102 7 l-98 0 -6 -30z"/>
<path d="M5743 8842 c-14 -9 -22 -137 -10 -148 4 -4 52 -9 107 -12 l100 -5 0
76 0 75 -77 7 c-43 4 -85 8 -93 11 -8 2 -21 0 -27 -4z m143 -22 l44 0 0 -52
c0 -29 -4 -58 -8 -63 -4 -7 -41 -9 -94 -7 l-88 4 0 33 c0 18 3 47 6 65 7 32 8
32 52 26 25 -3 64 -6 88 -6z"/>
<path d="M6061 8820 c-5 -3 -11 -27 -15 -55 -57 -450 -74 -620 -65 -629 2 -2
39 -9 83 -15 70 -10 80 -9 91 6 11 15 14 15 41 -4 59 -41 158 -56 220 -33 33
13 85 56 101 84 27 48 45 133 44 210 -1 64 -6 87 -27 126 -46 85 -172 133
-260 100 l-27 -10 7 98 7 99 -38 8 c-65 13 -153 21 -162 15z m147 -26 l44 -5
-7 -52 c-3 -29 -11 -76 -16 -105 -6 -30 -8 -56 -5 -59 3 -3 23 2 46 11 53 21
108 20 163 -3 82 -35 113 -103 104 -231 -4 -77 -32 -164 -48 -154 -5 3 -9 -6
-9 -20 0 -32 -57 -72 -115 -82 -49 -7 -142 14 -110 26 16 6 13 8 -17 14 -23 4
-44 17 -57 34 -19 26 -20 27 -34 7 -8 -10 -12 -26 -9 -34 4 -12 -6 -13 -68 -8
-40 3 -74 7 -75 9 -1 2 1 35 6 73 5 39 20 178 34 310 15 132 29 250 32 262 5
24 2 24 141 7z"/>
<path d="M6238 8457 c-27 -25 -38 -61 -42 -139 -2 -34 2 -48 21 -65 23 -22 65
-29 98 -17 27 11 46 62 48 130 2 72 -15 99 -68 110 -24 4 -36 0 -57 -19z m100
-26 c18 -22 7 -139 -15 -163 -23 -26 -60 -22 -90 8 -23 23 -25 31 -19 80 3 30
12 63 18 74 21 33 80 34 106 1z"/>
<path d="M6077 8213 c-4 -3 -7 -13 -7 -22 1 -13 3 -13 11 2 11 19 8 33 -4 20z"/>
<path d="M6330 8145 c-25 -13 -41 -24 -37 -25 15 0 75 28 81 39 9 14 9 14 -44
-14z"/>
<path d="M4580 8804 c-153 -40 -223 -178 -155 -303 26 -48 66 -75 150 -102
l40 -13 -105 -11 -105 -10 3 -39 c10 -117 98 -185 254 -194 152 -8 253 22 320
96 61 67 66 196 12 254 -33 34 -137 88 -172 88 -13 0 -20 4 -17 10 3 6 25 10
48 10 23 0 66 3 95 6 48 6 52 9 51 33 -2 23 -2 24 -6 4 -4 -21 -10 -23 -61
-23 -31 0 -74 -3 -94 -6 -34 -6 -39 -4 -48 20 -19 50 -99 59 -150 18 -46 -37
-5 -65 121 -82 103 -14 177 -42 213 -79 48 -50 46 -190 -3 -252 -50 -64 -217
-103 -347 -81 -39 6 -71 18 -78 27 -6 9 -16 15 -21 14 -23 -7 -58 26 -81 74
-37 79 -35 83 44 90 109 11 122 10 122 -12 0 -11 12 -29 28 -41 23 -19 35 -21
87 -16 69 7 103 33 85 66 -12 23 -21 25 -137 44 -171 27 -242 78 -251 181 -6
71 12 118 58 158 83 71 233 91 385 51 11 -2 4 4 -15 15 -43 25 -185 27 -270 5z
m177 -169 c11 -8 23 -24 26 -36 6 -21 3 -21 -45 -16 -64 8 -104 32 -87 53 15
18 79 18 106 -1z m-32 -266 c92 -23 82 -59 -17 -59 -54 0 -59 2 -73 30 -8 16
-15 31 -15 35 0 9 59 6 105 -6z"/>
<path d="M5287 8722 c-5 -52 -6 -96 -3 -100 3 -3 27 5 54 19 35 18 63 24 109
24 41 0 57 3 47 8 -25 14 -121 9 -153 -8 -17 -8 -32 -15 -35 -15 -3 0 -6 37
-8 83 l-3 82 -8 -93z"/>
<path d="M4920 8754 c17 -15 39 -43 50 -63 10 -20 19 -29 20 -20 0 27 -68 108
-93 109 -5 0 5 -12 23 -26z"/>
<path d="M3785 8722 c-41 -5 -55 -19 -55 -56 0 -17 -3 -48 -6 -68 -6 -32 -11
-38 -43 -45 -39 -10 -40 -13 -26 -110 6 -41 8 -43 40 -43 38 0 35 8 60 -151 8
-53 19 -109 25 -123 16 -43 65 -66 141 -66 62 0 163 22 173 38 2 4 -1 33 -6
65 l-10 57 -37 0 c-54 0 -69 16 -81 90 -16 105 -14 130 13 130 12 0 33 3 46 7
22 6 23 9 18 63 -10 87 -12 90 -67 86 l-47 -3 -13 68 -12 69 -41 -2 c-23 -2
-55 -5 -72 -6z m100 -14 c5 -15 13 -81 14 -116 1 -23 3 -24 52 -17 61 9 69 1
69 -67 l0 -47 -45 -7 c-51 -7 -52 -9 -35 -124 5 -39 5 -67 0 -70 -5 -3 6 -23
25 -45 54 -60 49 -70 -47 -94 -58 -15 -69 -20 -38 -17 25 3 63 11 85 18 34 11
40 17 40 42 1 20 8 32 23 39 29 13 34 7 40 -52 l4 -50 -43 -12 c-24 -6 -74
-12 -112 -12 -63 -1 -69 1 -96 31 -16 17 -32 44 -35 59 -8 38 -36 225 -36 242
0 9 -10 12 -35 9 -38 -4 -39 -3 -50 69 -6 40 -5 42 22 48 50 12 53 14 53 43 0
16 3 50 6 74 l6 46 52 9 c72 14 76 14 81 1z"/>
<path d="M5720 8654 c0 -5 -7 -110 -16 -234 -16 -215 -18 -270 -11 -277 2 -1
49 -6 104 -9 l100 -7 6 29 c13 64 31 474 21 484 -13 13 -204 26 -204 14z m195
-26 c3 -7 -3 -116 -12 -243 l-18 -230 -60 0 c-33 0 -72 1 -88 3 l-27 4 5 92
c2 50 7 147 10 216 9 185 0 170 101 170 58 0 86 -4 89 -12z"/>
<path d="M5811 8214 c0 -13 -10 -25 -23 -29 -21 -6 -21 -8 -4 -12 25 -7 39 10
33 38 -4 22 -4 22 -6 3z"/>
<path d="M6704 8522 c-50 -24 -86 -72 -82 -109 3 -27 7 -29 87 -43 l83 -16
-68 -11 c-105 -18 -154 -65 -162 -156 -6 -76 15 -112 83 -143 68 -32 139 -40
205 -24 47 11 53 11 73 -8 12 -11 40 -27 61 -36 42 -18 143 -24 155 -10 5 5
13 32 18 61 11 56 4 73 -29 73 -22 0 -22 -9 2 130 30 171 16 206 -106 266 -68
34 -83 38 -177 41 -85 3 -109 1 -143 -15z m271 -24 c84 -25 132 -59 152 -105
13 -31 12 -46 -7 -148 -26 -133 -24 -159 8 -163 22 -3 23 -7 17 -45 -4 -23
-10 -46 -15 -50 -4 -5 -31 -7 -61 -5 -52 3 -53 4 -26 15 18 8 27 20 27 35 0
13 3 40 6 61 4 24 3 37 -4 37 -6 0 -9 -6 -6 -14 3 -8 0 -32 -6 -55 -11 -41
-11 -41 -60 -41 -41 0 -52 4 -65 23 -11 18 -22 23 -44 19 -21 -3 -32 2 -43 17
-14 20 -17 21 -59 6 -62 -22 -145 -17 -178 11 -21 18 -25 30 -25 78 0 59 16
92 66 129 29 22 99 26 221 14 l77 -8 0 35 c0 29 -5 38 -30 51 -38 20 -74 19
-95 -1 -13 -13 -28 -15 -78 -10 -92 11 -107 16 -107 37 0 48 61 92 140 101 48
6 126 -3 195 -24z m-67 -124 c12 -8 22 -22 22 -30 0 -12 -10 -13 -52 -8 -29 4
-54 7 -55 8 -1 1 0 12 4 24 7 27 47 30 81 6z m-71 -313 c10 -16 9 -20 -3 -25
-21 -8 -74 -8 -114 1 -32 6 -31 7 31 23 35 10 66 18 69 19 3 0 11 -8 17 -18z"/>
<path d="M6811 8230 c-13 -6 -34 -21 -45 -33 -20 -21 -20 -23 -3 -40 42 -42
94 -47 135 -12 32 27 44 55 32 75 -10 16 -89 22 -119 10z m93 -29 c9 -13 -26
-50 -49 -52 -61 -5 -85 10 -71 46 6 17 110 22 120 6z"/>
<path d="M7020 8152 c0 -5 7 -15 15 -22 8 -7 15 -9 15 -6 0 4 -7 14 -15 22 -8
9 -15 11 -15 6z"/>
<path d="M3378 8506 c-48 -13 -62 -21 -110 -64 -26 -24 -26 -24 -33 -3 -4 13
-14 21 -28 20 -31 -1 -130 -23 -143 -31 -9 -6 2 -76 38 -250 28 -134 54 -247
58 -252 9 -9 178 21 193 34 5 4 -5 76 -23 160 -17 83 -28 160 -25 171 13 40
86 48 100 11 5 -14 65 -297 65 -309 0 -14 194 20 204 35 2 4 -5 43 -15 87 -12
51 -16 62 -12 30 15 -113 18 -107 -70 -123 -54 -10 -82 -11 -89 -4 -16 16 0
32 32 32 46 0 81 17 73 36 -6 15 -7 15 -15 0 -6 -11 -16 -15 -28 -11 -10 3
-21 1 -25 -5 -10 -16 -43 -12 -49 8 -2 9 -14 67 -26 127 -12 61 -29 118 -38
128 -24 27 -77 22 -101 -9 -26 -34 -26 -51 4 -204 14 -69 25 -130 25 -136 0
-6 -38 -17 -85 -25 -67 -12 -85 -13 -85 -3 0 17 14 25 58 30 20 3 41 9 45 13
5 5 1 42 -9 85 -10 42 -19 74 -21 72 -2 -1 1 -32 6 -67 9 -68 -2 -94 -26 -62
-12 15 -13 15 -13 -5 0 -12 -6 -22 -13 -22 -30 0 -45 30 -67 135 -13 61 -31
147 -41 193 -12 61 -14 84 -6 87 22 8 102 25 119 25 9 0 20 -13 27 -30 10 -31
31 -41 31 -16 0 22 75 81 119 94 21 7 56 12 77 12 29 0 35 3 24 10 -19 13 -44
12 -102 -4z"/>
<path d="M3556 8458 c10 -14 21 -24 23 -22 3 3 -6 15 -18 27 l-24 22 19 -27z"/>
<path d="M7740 8451 c-70 -23 -139 -82 -173 -148 -32 -61 -57 -166 -56 -232 1
-77 12 -113 57 -176 27 -38 49 -54 120 -88 85 -41 90 -42 192 -42 80 0 112 4
135 17 50 28 113 97 128 143 l15 43 -56 20 c-56 20 -131 42 -144 42 -3 0 -15
-16 -27 -35 -11 -19 -31 -39 -43 -44 -36 -13 -86 -1 -118 29 -38 36 -40 83 -5
177 32 89 63 117 119 109 60 -10 91 -45 88 -99 l-1 -44 101 -32 c69 -21 105
-28 112 -21 18 18 19 125 1 180 -23 70 -76 122 -168 166 -67 32 -89 37 -165
40 -48 2 -98 0 -112 -5z m271 -53 c118 -56 169 -129 169 -244 0 -64 -8 -75
-45 -65 -29 7 -30 10 -28 57 3 50 -1 50 -11 2 -5 -23 -10 -26 -38 -23 -43 4
-69 15 -67 29 7 62 -27 115 -86 133 -31 10 -42 9 -78 -10 -35 -19 -46 -32 -70
-92 -16 -38 -32 -95 -35 -127 -5 -62 -10 -68 -35 -40 -31 34 -36 67 -22 128 7
33 12 60 10 62 -7 7 -35 -94 -35 -127 0 -32 35 -101 52 -101 4 0 18 -4 32 -10
32 -12 25 -38 -10 -36 -30 1 -32 16 -2 16 26 0 21 5 -14 14 -23 5 -25 3 -21
-14 3 -11 0 -20 -6 -20 -6 0 -11 5 -11 10 0 18 -20 11 -21 -7 0 -10 -9 4 -20
32 -11 27 -23 52 -26 55 -10 10 8 -95 22 -122 12 -25 12 -26 -5 -15 -10 6 -17
14 -14 18 2 4 -2 9 -9 12 -7 2 -23 26 -36 52 -21 41 -23 57 -19 133 8 151 74
272 172 319 45 21 62 24 141 20 78 -3 100 -8 166 -39z m9 -424 c0 -31 -47 -64
-90 -64 -22 0 -40 3 -40 6 0 3 13 16 29 30 17 14 33 33 36 44 5 16 10 17 35 8
17 -5 30 -16 30 -24z m100 -24 c0 -12 -6 -33 -14 -48 -15 -28 -56 -68 -56 -54
0 4 -5 -1 -11 -10 -5 -10 -21 -18 -34 -18 -14 0 -25 -4 -25 -10 0 -5 -11 -10
-25 -10 -22 0 -20 4 24 45 26 25 56 63 66 85 15 33 23 40 47 40 22 0 28 -5 28
-20z m-346 -18 c3 -5 -1 -9 -9 -9 -8 0 -12 4 -9 9 3 4 7 8 9 8 2 0 6 -4 9 -8z
m136 -136 c0 -2 -7 -6 -15 -10 -8 -3 -15 -1 -15 4 0 6 7 10 15 10 8 0 15 -2
15 -4z"/>
<path d="M2770 8360 c-151 -15 -265 -79 -303 -169 -13 -31 -10 -82 7 -98 2 -2
45 6 96 19 74 18 94 27 101 45 10 28 42 45 77 41 47 -5 39 -34 -13 -47 -119
-30 -217 -104 -230 -175 -10 -51 18 -139 51 -161 44 -28 82 -35 142 -24 64 12
101 29 155 71 34 28 40 29 68 18 37 -16 109 -7 166 21 38 18 43 25 42 52 0 18
-6 48 -13 67 -11 31 -16 35 -44 32 -30 -3 -32 -1 -47 55 -9 32 -23 79 -30 104
-21 74 -43 107 -83 128 -53 26 -69 29 -142 21z m104 -20 c59 -13 84 -46 112
-141 30 -108 30 -109 -7 -109 -19 0 -28 -4 -23 -11 3 -6 17 -8 29 -5 19 5 25
0 34 -26 16 -45 14 -71 -4 -64 -8 3 -14 0 -12 -7 1 -8 -10 -11 -32 -10 -24 1
-30 -1 -20 -8 8 -5 11 -9 7 -9 -3 0 -13 -3 -21 -6 -11 -4 -14 0 -11 13 3 10 0
31 -5 46 -9 22 -16 27 -38 25 -21 -2 -28 1 -27 14 1 10 -2 15 -7 12 -5 -3 -9
2 -9 10 0 18 -22 21 -50 6 -14 -8 -20 -4 -32 19 l-13 28 -48 -15 c-27 -9 -53
-24 -59 -36 -23 -41 -58 -152 -58 -182 0 -20 -5 -31 -15 -31 -8 0 -12 4 -9 9
3 4 0 8 -5 8 -6 0 -10 3 -9 8 1 4 -4 25 -10 46 -10 34 -9 46 7 82 12 26 28 45
42 49 13 4 33 15 44 25 11 10 57 30 103 45 81 26 95 40 74 71 -18 27 -102 48
-102 26 0 -5 -19 -18 -42 -29 -24 -11 -54 -25 -68 -32 -14 -6 -17 -9 -7 -6 11
3 31 8 45 11 24 5 25 4 9 -6 -11 -7 -35 -12 -55 -13 -21 0 -39 -4 -42 -8 -3
-4 -18 -11 -33 -14 -25 -7 -27 -5 -27 26 0 60 46 110 142 154 82 37 183 52
252 35z m-131 -267 c2 -11 -10 -31 -32 -50 -38 -36 -50 -40 -69 -21 -22 22
-13 47 26 67 46 25 69 26 75 4z m77 -51 c0 -35 -25 -59 -68 -68 -24 -5 -33 -3
-38 10 -7 19 10 43 51 68 42 25 55 23 55 -10z m246 -27 c4 -25 11 -35 25 -35
11 0 19 -4 19 -9 0 -30 -130 -68 -172 -51 -18 7 -19 9 -5 9 10 1 40 13 68 27
48 24 51 27 47 60 -5 45 9 44 18 -1z m-156 -15 c0 -37 -28 -54 -64 -40 -33 12
-33 23 0 49 40 31 64 28 64 -9z m-246 -22 c-6 -10 -5 -10 7 -1 13 11 15 8 15
-19 l0 -31 -23 27 c-13 15 -23 22 -23 16 0 -6 -4 -8 -10 -5 -19 11 -10 25 16
25 17 0 23 -4 18 -12z m173 -41 c12 -7 19 -17 15 -23 -11 -17 -104 -64 -127
-64 -12 0 -26 -5 -32 -11 -7 -7 -12 -6 -16 4 -4 10 7 20 32 32 21 9 51 29 67
45 34 33 32 33 61 17z m-177 -91 c0 -3 -4 -8 -10 -11 -5 -3 -10 -1 -10 4 0 6
5 11 10 11 6 0 10 -2 10 -4z"/>
<path d="M2140 8326 l-65 -23 0 -78 0 -79 -32 -9 c-39 -12 -39 -15 -12 -95 22
-64 27 -69 59 -52 24 13 34 -6 80 -145 47 -142 92 -178 195 -155 54 12 150 54
159 69 4 6 -1 36 -10 66 l-18 56 -53 -7 c-46 -5 -54 -4 -59 12 -3 11 -20 54
-36 98 -16 43 -27 80 -25 82 2 2 21 10 43 18 35 12 39 17 38 47 -2 53 -30 111
-51 105 -78 -21 -78 -22 -104 45 -13 34 -29 64 -34 65 -6 1 -39 -8 -75 -20z
m85 -28 c20 -100 25 -109 53 -106 23 3 27 -1 27 -22 0 -19 -7 -27 -30 -35 -59
-20 -57 -13 -25 -130 17 -61 17 -69 -4 -73 -13 -3 -17 0 -13 10 7 20 -28 40
-57 32 -19 -4 -25 0 -36 26 -9 22 -17 29 -29 24 -38 -15 -48 -15 -54 3 -3 10
-10 33 -16 51 -9 31 -8 33 25 47 l35 14 -7 75 c-6 69 -5 76 12 82 11 3 33 12
49 19 48 22 63 19 70 -17z m151 -134 c7 -27 9 -52 6 -55 -4 -4 -24 -12 -44
-19 -21 -6 -38 -15 -38 -18 0 -4 9 -36 20 -72 24 -79 25 -92 4 -88 -17 3 -88
174 -80 193 2 6 23 17 46 24 39 12 41 14 35 43 -5 21 -3 33 6 39 23 14 31 5
45 -47z m-167 -241 c14 -48 14 -73 1 -73 -6 0 -13 8 -16 18 -3 9 -12 29 -19
43 -11 20 -11 29 -3 37 19 19 26 14 37 -25z m271 -83 c0 -5 -2 -10 -4 -10 -3
0 -8 5 -11 10 -3 6 -1 10 4 10 6 0 11 -4 11 -10z m-10 -45 c0 -8 -4 -15 -10
-15 -5 0 -7 7 -4 15 4 8 8 15 10 15 2 0 4 -7 4 -15z"/>
<path d="M3617 8295 c3 -27 9 -61 14 -75 l7 -25 0 25 c0 14 -6 48 -13 75 l-14
50 6 -50z"/>
<path d="M8359 8303 c-55 -144 -218 -620 -215 -629 4 -11 184 -80 190 -73 12
15 224 614 229 647 2 14 -104 64 -161 77 -29 6 -33 4 -43 -22z m77 -9 c13 -3
24 -10 24 -15 0 -5 13 -9 28 -9 16 0 36 -6 45 -12 17 -14 25 10 -89 -288 -35
-92 -74 -180 -80 -180 -1 0 -10 7 -18 16 -15 14 -16 14 -16 -2 0 -10 -3 -15
-6 -11 -9 9 6 48 17 42 5 -3 6 1 3 9 -3 8 20 94 51 191 31 97 54 179 52 182
-3 2 -11 -13 -17 -33 -14 -42 -87 -209 -129 -297 -26 -53 -30 -57 -45 -42 -9
9 -16 25 -16 35 0 15 111 355 135 413 4 11 14 16 22 13 8 -4 26 -9 39 -12z"/>
<path d="M5160 8200 c0 -13 11 -13 30 0 12 8 11 10 -7 10 -13 0 -23 -4 -23
-10z"/>
<path d="M5485 8200 c-4 -6 3 -10 14 -10 25 0 27 6 6 13 -8 4 -17 2 -20 -3z"/>
<path d="M1865 8071 c-110 -40 -128 -50 -120 -68 3 -10 31 -80 61 -156 53
-132 55 -140 40 -163 -21 -32 -65 -43 -81 -20 -7 9 -39 82 -70 161 -34 85 -63
145 -71 145 -16 0 -166 -58 -177 -69 -9 -9 134 -364 158 -391 10 -11 37 -29
60 -40 37 -18 49 -19 91 -10 67 15 119 47 151 93 27 38 27 38 43 18 l15 -21
74 27 c40 14 75 32 77 38 3 6 -32 105 -77 220 -46 115 -84 204 -86 198 -2 -6
8 -41 23 -79 14 -38 28 -79 29 -90 2 -12 8 -31 15 -44 6 -12 9 -24 6 -27 -3
-3 -8 2 -12 11 -3 9 -10 14 -14 11 -4 -3 -15 12 -23 33 -8 20 -29 68 -46 106
-30 65 -32 68 -49 52 -10 -9 -26 -16 -35 -16 -27 0 -28 -16 -7 -70 23 -57 24
-70 10 -70 -5 0 -10 7 -10 15 0 8 -3 15 -8 15 -11 0 -64 118 -58 129 4 5 28
17 54 27 26 10 58 24 72 31 22 11 27 11 39 -5 13 -16 13 -16 7 1 -3 10 -6 21
-6 23 0 8 -26 3 -75 -15z m39 -107 c4 -9 4 -19 1 -22 -3 -3 -5 0 -5 7 0 7 -10
10 -25 7 -26 -5 -35 8 -12 17 23 10 35 7 41 -9z m-267 -53 c-2 -9 2 -22 10
-29 14 -14 18 -68 4 -76 -4 -3 -14 14 -21 37 -8 23 -20 49 -27 58 -18 21 -16
36 4 48 21 11 38 -10 30 -38z m-59 -9 c2 -7 -9 -17 -26 -23 -17 -6 -33 -17
-36 -25 -5 -12 -8 -13 -20 -2 -10 9 -11 15 -2 20 7 5 4 8 -7 8 -10 0 -15 5
-12 11 4 6 12 8 19 6 6 -3 21 2 31 9 22 17 46 15 53 -4z"/>
<path d="M8535 7888 c-78 -185 -91 -255 -58 -318 35 -69 171 -115 252 -87 21
8 23 7 17 -20 -6 -28 -4 -30 71 -61 61 -25 80 -29 90 -19 13 14 183 440 183
460 0 11 -155 87 -178 87 -5 0 -28 -48 -52 -107 -70 -174 -80 -193 -106 -205
-35 -16 -74 3 -74 37 0 15 16 65 36 113 77 182 83 201 71 210 -19 14 -156 72
-170 72 -7 0 -44 -73 -82 -162z m145 107 c0 -17 -85 -174 -89 -163 -2 7 -10
20 -17 28 -11 13 -10 25 6 72 10 31 23 66 30 77 10 20 12 20 40 6 17 -9 30
-18 30 -20z m65 -17 c14 -6 25 -16 25 -21 0 -20 -24 -77 -33 -77 -4 0 -5 -4
-2 -10 3 -5 1 -10 -4 -10 -6 0 -11 -10 -11 -22 0 -12 -3 -19 -6 -15 -4 3 -12
1 -20 -6 -44 -39 -44 -39 -40 0 3 32 54 173 62 173 2 0 15 -5 29 -12z m217
-92 c3 2 8 -1 10 -8 6 -16 -29 -51 -37 -37 -4 5 -11 7 -16 4 -12 -8 -7 38 6
47 5 4 14 3 21 -2 6 -6 13 -7 16 -4z m68 -36 c0 -5 3 -9 8 -9 41 7 36 -13 -9
-37 l-30 -15 5 28 c2 15 5 31 5 36 1 11 21 8 21 -3z"/>
<path d="M8936 7867 c3 -10 9 -15 12 -12 3 3 0 11 -7 18 -10 9 -11 8 -5 -6z"/>
<path d="M1127 7928 c-70 -34 -127 -67 -127 -73 0 -7 14 -79 30 -160 17 -82
28 -150 25 -153 -3 -3 -15 8 -27 24 -31 39 -189 214 -194 214 -15 0 -274 -132
-274 -140 0 -11 278 -572 290 -584 9 -9 163 58 180 79 7 9 -7 48 -45 131 l-55
119 42 -46 c24 -25 66 -72 95 -105 l51 -59 81 40 c45 21 81 45 81 53 0 8 -9
57 -19 110 -25 127 -29 152 -24 152 2 0 29 -52 60 -115 31 -63 61 -115 66
-115 25 0 198 93 195 105 -8 35 -284 585 -294 585 -6 0 -68 -28 -137 -62z
m149 20 c5 -13 9 -25 9 -28 1 -3 7 -18 13 -33 7 -16 9 -33 6 -39 -4 -6 -2 -8
4 -4 15 9 25 -11 15 -29 -7 -11 -16 -2 -38 41 -17 30 -35 65 -42 77 -6 11 -10
25 -7 29 10 16 33 8 40 -14z m-51 -33 c0 -11 -7 -20 -15 -20 -8 0 -17 -2 -20
-5 -19 -19 -104 -55 -95 -40 3 6 -4 10 -16 10 -17 0 -19 -3 -10 -14 8 -9 8
-16 2 -20 -6 -4 -15 2 -20 13 -9 16 -7 21 11 27 12 3 26 11 32 16 21 18 101
56 116 54 8 -1 15 -10 15 -21z"/>
<path d="M9136 7668 c-82 -167 -151 -309 -153 -316 -3 -8 23 -25 72 -48 72
-33 78 -34 95 -19 18 16 20 15 39 -24 17 -32 35 -48 81 -71 132 -67 239 -19
322 143 25 49 32 78 35 137 4 69 2 78 -24 120 -36 55 -117 103 -174 102 -21
-1 -39 1 -39 3 0 2 18 41 40 87 22 46 40 86 40 90 0 8 -135 83 -166 92 -18 6
-35 -24 -168 -296z m214 237 c0 -6 -9 -21 -20 -33 -11 -12 -20 -27 -20 -34 -1
-9 -5 -7 -14 4 -7 10 -15 15 -18 12 -16 -15 -14 28 3 55 17 28 21 30 44 19 14
-6 25 -16 25 -23z m60 -20 c4 3 13 -2 20 -10 11 -13 9 -19 -8 -36 -12 -11 -22
-24 -22 -28 0 -5 -9 -7 -20 -4 -16 4 -19 2 -14 -13 5 -17 4 -17 -5 -2 -8 12
-6 28 10 65 12 26 24 42 26 35 3 -6 8 -10 13 -7z m-117 -58 c3 -8 -1 -14 -9
-14 -15 0 -18 9 -7 20 9 9 10 9 16 -6z m48 -64 c-12 -20 -14 -14 -5 12 4 9 9
14 11 11 3 -2 0 -13 -6 -23z m54 -219 c33 -13 37 -52 12 -108 -29 -63 -51 -86
-83 -86 -31 0 -64 33 -64 65 0 30 44 121 62 128 19 8 54 8 73 1z"/>
<path d="M6985 6429 c-244 -11 -419 -84 -604 -254 -57 -51 -154 -182 -192
-257 -16 -32 -36 -58 -43 -58 -8 0 -28 -12 -45 -26 -31 -26 -39 -25 -76 6 -33
28 -97 42 -134 29 -36 -13 -61 -6 -61 16 0 25 -121 184 -192 251 -103 99 -254
187 -396 231 -84 26 -448 26 -542 0 -163 -46 -325 -142 -432 -255 -78 -83
-118 -139 -178 -252 -42 -79 -48 -85 -84 -92 -53 -11 -101 -42 -126 -82 l-20
-34 -378 -7 c-1113 -20 -1123 -21 -1181 -43 -155 -61 -283 -187 -464 -461 -39
-58 -93 -133 -122 -166 -59 -68 -75 -94 -75 -125 0 -36 28 -84 63 -106 52 -34
84 -37 130 -15 37 18 52 38 126 163 171 291 241 382 325 425 50 26 55 27 336
34 157 4 494 10 750 14 l465 7 23 -47 c24 -49 57 -82 101 -100 21 -9 27 -23
42 -93 48 -220 179 -439 347 -577 56 -47 253 -155 325 -179 23 -7 23 -9 -14
-383 l-32 -321 19 -58 c16 -49 26 -64 63 -88 47 -31 107 -43 167 -32 49 10
130 92 140 143 l7 36 22 -58 c14 -37 34 -69 55 -87 42 -35 128 -68 177 -68
l35 0 -8 -107 c-18 -225 4 -287 117 -338 85 -38 154 -22 217 49 61 70 64 147
18 496 -28 215 -51 476 -61 675 l-7 130 53 35 c37 24 62 52 83 90 27 48 31 66
34 154 4 89 7 103 34 142 49 73 108 210 134 311 13 52 24 104 24 114 0 13 10
20 35 25 19 3 39 12 46 20 24 29 49 10 49 -36 0 -33 51 -193 85 -267 69 -150
193 -305 309 -387 65 -47 223 -129 269 -140 25 -6 27 -10 27 -59 0 -46 -13
-189 -50 -527 -14 -139 -12 -199 9 -247 41 -89 169 -130 259 -84 50 26 97 86
107 138 l7 38 19 -62 c28 -90 107 -149 216 -160 l54 -6 -8 -91 c-13 -147 -9
-215 16 -264 23 -44 70 -80 133 -101 50 -16 132 6 170 46 72 78 81 160 44 418
-29 208 -62 557 -72 760 l-6 140 53 36 c78 51 112 120 119 243 5 87 7 93 43
141 52 67 131 232 156 324 12 41 26 113 31 160 6 47 20 116 32 154 40 131 12
285 -67 367 -18 19 -52 71 -75 115 -138 263 -371 448 -643 509 -79 18 -169 22
-332 15z m368 -220 c233 -78 408 -297 467 -589 22 -108 26 -225 9 -316 -14
-78 -58 -224 -67 -224 -5 0 -12 19 -18 42 -5 23 -15 44 -23 46 -22 7 -6 -131
30 -268 17 -63 38 -142 46 -175 47 -189 -74 -357 -237 -328 -52 10 -51 6 -70
202 l-12 130 36 32 c87 76 106 188 61 354 -15 55 -33 130 -40 166 l-12 67 37
6 c42 7 95 58 106 102 14 53 -3 140 -43 225 -41 87 -66 119 -78 99 -4 -6 12
-48 34 -93 68 -137 73 -231 14 -277 -27 -21 -68 -27 -78 -10 -3 6 -13 10 -22
10 -23 0 -11 -98 32 -266 51 -195 45 -267 -28 -342 -37 -39 -77 -51 -137 -43
-48 7 -57 20 -59 93 -1 47 -10 68 -27 68 -10 0 -14 -13 -14 -42 0 -60 44 -311
80 -459 16 -68 30 -146 30 -174 0 -157 -103 -275 -240 -277 -28 0 -53 2 -56 4
-11 12 -25 128 -45 384 l-22 280 49 50 c73 73 91 155 59 274 -8 30 -15 56 -15
58 0 1 11 2 25 2 31 0 93 30 117 57 29 32 48 90 48 147 0 64 -81 323 -107 343
-28 22 -33 -6 -11 -61 39 -100 78 -239 78 -283 0 -82 -43 -143 -111 -158 -42
-10 -55 6 -68 83 -6 37 -14 79 -17 95 -7 33 -34 37 -33 5 1 -42 26 -172 53
-272 23 -87 25 -106 16 -155 -11 -63 -32 -96 -80 -128 -71 -49 -185 -17 -221
60 -24 54 -23 89 6 222 15 69 20 114 14 120 -6 6 -12 6 -17 0 -9 -10 -41 -140
-50 -202 -2 -18 -8 -33 -12 -33 -15 0 -95 118 -132 195 -62 130 -81 217 -81
380 -1 153 17 246 73 371 143 320 479 497 763 403z m-2137 -40 c182 -55 338
-188 427 -364 47 -95 73 -182 93 -314 21 -142 12 -264 -27 -386 -24 -76 -26
-75 -43 28 -5 24 -12 37 -23 37 -30 0 -5 -148 72 -425 37 -130 0 -254 -94
-320 -37 -26 -51 -30 -103 -28 -35 1 -66 7 -74 15 -8 8 -19 73 -29 163 l-16
150 48 50 c29 30 53 67 61 91 18 61 15 160 -8 239 -25 84 -50 199 -50 226 0
13 7 19 23 19 35 0 87 38 103 75 24 57 18 137 -17 223 -36 91 -76 149 -92 133
-7 -7 -3 -25 16 -60 39 -70 77 -176 77 -212 0 -37 -23 -83 -52 -103 -25 -18
-68 -21 -68 -6 0 6 -9 10 -21 10 -20 0 -21 -3 -14 -62 4 -35 22 -124 41 -198
49 -197 44 -275 -25 -345 -38 -39 -86 -56 -136 -48 -46 7 -53 18 -61 89 -7 60
-19 88 -35 78 -5 -3 -9 -22 -9 -43 0 -57 47 -321 80 -453 49 -192 37 -306 -42
-390 -69 -72 -218 -101 -232 -44 -8 31 -34 313 -41 446 -3 63 -8 135 -11 160
-4 41 -1 47 24 64 82 54 114 181 77 302 -8 27 -15 50 -15 52 0 1 11 2 25 2 31
0 93 30 117 57 29 32 48 90 48 146 0 88 -89 356 -115 346 -16 -7 -8 -48 30
-159 45 -129 55 -219 28 -269 -32 -61 -106 -97 -135 -67 -9 8 -21 46 -27 83
-19 109 -21 113 -36 113 -8 0 -15 -8 -15 -17 1 -36 29 -180 50 -253 27 -91 30
-193 8 -235 -30 -57 -73 -87 -127 -93 -62 -6 -101 9 -141 54 -49 56 -50 87 -5
288 10 47 12 73 5 80 -5 5 -12 7 -15 4 -12 -12 -48 -177 -54 -248 l-6 -74 -57
69 c-246 296 -259 753 -32 1066 48 66 152 161 219 199 139 79 295 101 431 59z
m752 -335 c80 -33 132 -123 132 -229 0 -59 15 -82 24 -38 8 36 -8 133 -29 172
-17 35 -9 63 25 81 45 24 118 -6 159 -66 78 -114 80 -282 4 -413 -34 -58 -95
-87 -152 -71 -21 5 -44 17 -51 25 -18 22 -43 18 -70 -10 -41 -44 -50 -34 -50
59 0 146 -33 319 -84 440 -21 50 -20 54 7 59 40 8 47 7 85 -9z m-613 -1126 c4
-4 23 -173 30 -268 12 -157 38 -384 57 -490 12 -63 23 -150 25 -192 4 -66 2
-84 -20 -131 -49 -109 -159 -149 -268 -100 -89 40 -115 100 -105 243 9 146 13
158 49 166 103 22 187 129 207 261 11 72 12 65 -44 298 -14 61 -29 135 -32
166 l-7 56 52 -2 c29 -2 54 -5 56 -7z m2091 -95 c7 -54 15 -134 18 -178 17
-218 52 -493 75 -596 32 -137 -6 -257 -96 -307 -71 -39 -177 -27 -236 26 -31
28 -56 86 -58 138 -3 59 10 207 19 220 4 6 30 18 57 29 69 25 136 94 164 168
23 64 29 194 10 243 -10 27 -60 248 -74 326 l-7 36 59 -3 58 -4 11 -98z
m-2603 20 c38 -4 48 -10 52 -27 2 -11 11 -120 20 -241 15 -219 32 -378 60
-550 31 -194 -21 -295 -150 -295 -68 1 -122 38 -149 103 l-20 48 27 252 c37
334 57 565 57 656 l0 73 28 -6 c15 -4 48 -9 75 -13z m2079 0 c57 -6 51 17 73
-288 14 -202 28 -330 55 -508 32 -215 -8 -306 -138 -314 -49 -3 -62 0 -96 24
-47 33 -76 85 -76 133 0 19 13 163 29 320 39 377 51 523 51 594 l0 58 28 -7
c15 -4 48 -9 74 -12z m-1358 -421 c12 -263 27 -423 72 -752 30 -215 28 -290
-10 -355 -44 -74 -132 -97 -204 -51 -87 55 -99 96 -83 278 11 124 14 134 38
153 67 52 103 97 118 147 17 59 19 162 4 227 -17 76 -48 299 -55 401 l-7 98
60 0 60 0 7 -146z m2076 59 c0 -165 38 -569 87 -910 24 -174 -3 -278 -84 -316
-76 -36 -175 2 -214 82 -22 46 -22 49 -11 197 7 83 16 152 21 154 31 10 92 69
114 111 41 75 44 146 13 331 -14 85 -30 202 -36 260 -6 58 -13 122 -15 142
l-5 37 65 -1 65 0 0 -87z m-2597 -381 c-2 -19 -6 -55 -10 -80 l-6 -45 -13 50
c-7 28 -13 65 -13 83 -1 29 2 33 22 30 18 -3 22 -8 20 -38z m2073 32 c8 -5 8
-30 1 -87 -11 -90 -22 -81 -33 30 -7 66 0 79 32 57z"/>
<path d="M7150 5990 c-10 -6 3 -24 54 -74 63 -60 67 -67 64 -103 -2 -31 -7
-39 -25 -41 -32 -5 -32 -42 0 -42 55 0 85 54 63 116 -24 70 -125 163 -156 144z"/>
<path d="M6785 5780 c-3 -5 8 -24 26 -42 52 -55 72 -104 65 -160 -5 -37 -4
-48 7 -48 16 0 37 41 37 73 0 32 -43 117 -78 155 -32 33 -46 39 -57 22z"/>
<path d="M5072 5988 c-8 -8 7 -28 53 -73 35 -33 67 -73 70 -88 8 -32 -8 -57
-36 -57 -12 0 -19 -7 -19 -20 0 -15 7 -20 28 -20 54 0 84 62 59 122 -31 73
-130 161 -155 136z"/>
<path d="M4710 5779 c0 -6 11 -25 25 -41 47 -56 68 -107 62 -155 -5 -48 9 -66
30 -38 22 31 15 83 -19 147 -38 71 -98 125 -98 87z"/>
<path d="M5044 2283 c-15 -44 -51 -113 -93 -178 -102 -160 -131 -260 -106
-359 18 -70 41 -98 107 -132 52 -26 135 -32 185 -13 75 28 122 109 123 211 0
88 -26 166 -96 290 -32 56 -65 123 -75 147 -18 50 -36 63 -45 34z m113 -243
c90 -162 94 -301 12 -377 -38 -35 -109 -50 -158 -33 -67 22 -117 72 -131 130
-20 85 11 177 116 342 25 39 50 82 56 97 10 26 10 25 37 -29 15 -30 45 -89 68
-130z"/>
<path d="M7110 2254 c-11 -26 -20 -48 -20 -50 0 -2 -23 -41 -51 -86 -116 -184
-145 -279 -115 -380 17 -59 48 -94 114 -128 35 -18 55 -22 112 -18 58 3 75 8
107 34 112 89 111 258 -2 454 -42 73 -88 167 -99 203 -9 29 -24 19 -46 -29z
m59 -91 c13 -27 38 -73 57 -104 64 -106 91 -213 74 -296 -14 -64 -41 -100 -94
-124 -55 -25 -87 -24 -151 6 -76 36 -100 78 -99 170 0 61 5 80 41 150 22 44
61 113 86 153 26 40 47 77 47 82 0 24 18 7 39 -37z"/>
</g>
</svg>
